<svg width="112" height="62" viewBox="0 0 112 62" fill="none" xmlns="http://www.w3.org/2000/svg">
<path fill-rule="evenodd" clip-rule="evenodd" d="M66.465 7.5L56.965 16H67.965C80 16 86.847 17.37 90.5 22.5C94.85 28.609 94.641 35.644 89.5 41.5C85 45.5 81 46 68 46.5C61.932 46.5 57 46.5 57 46.5C57.044 46.912 67 56 67 56L74 62H84C101 60 108.465 46 108.465 46C112.465 39.066 113.082 26.26 109.465 19C106.037 9.26999 94.965 1 80.965 0H74.965L66.465 7.5ZM14.5 10.5L0 24V31V37L15.5 52L26 62H38C46 62 46 62 46 62C45.956 61.588 29.5 47 29.5 47L12 31L28 16L46 0C46 0 41.049 0 36.465 0H26.5L14.5 10.5ZM34 15.5L16.965 31L35 47.5L51 62H60.5H68.5C68.464 61.588 53 48 53 48L36 32L35 31L49.965 17L70 0H59.465H51L34 15.5ZM55.965 31.5V39H63.465H71.465C85.731 39 84.8405 38.8768 87 37.5C90.3156 35.3862 90.035 27 87.5 25C85.2346 23.2127 85.274 23 70.965 23H55.965L55.965 31.5Z" fill="white"/>
</svg>
